<?xml version="1.0" encoding="utf-8"?>
<!-- Generator: Adobe Illustrator 16.0.0, SVG Export Plug-In . SVG Version: 6.00 Build 0)  -->
<!DOCTYPE svg PUBLIC "-//W3C//DTD SVG 1.1//EN" "http://www.w3.org/Graphics/SVG/1.1/DTD/svg11.dtd">
<svg version="1.1" id="Layer_1" xmlns="http://www.w3.org/2000/svg" xmlns:xlink="http://www.w3.org/1999/xlink" x="0px" y="0px"
	 width="444.769px" height="117.885px" viewBox="0 0 444.769 117.885" enable-background="new 0 0 444.769 117.885"
	 xml:space="preserve">
<g>
	<path fill="#F48020" d="M444.528,71.967h-3.223v3.263h3.223V71.967z M442.795,61.422l-1.812,1.793
		c0.704,0.744,1.147,1.45,1.147,2.476c0,1.671-1.329,2.738-2.98,2.738h-0.04c-1.591,0-2.94-1.087-2.94-2.617
		c0-1.088,0.463-1.772,1.188-2.457l-2.014-1.872c-1.128,1.006-1.813,2.275-1.813,4.309c0,3.302,2.537,5.658,5.618,5.658h0.04
		c3.081,0,5.578-2.376,5.578-5.617C444.769,63.677,443.944,62.469,442.795,61.422 M439.151,49.75h-0.04
		c-3.101,0-5.578,2.477-5.578,5.819c0,3.363,2.517,5.86,5.618,5.86h0.04c3.102,0,5.578-2.477,5.578-5.819
		C444.769,52.248,442.252,49.75,439.151,49.75 M439.151,52.771h0.04c1.591,0,2.94,1.048,2.94,2.799c0,1.691-1.39,2.839-2.98,2.839
		h-0.04c-1.591,0-2.94-1.047-2.94-2.798C436.17,53.918,437.56,52.771,439.151,52.771 M444.528,35.299v-3.061H437.5
		c-2.598,0-3.967,1.37-3.967,3.645c0,1.47,0.604,2.597,1.712,3.544c-1.088,0.563-1.712,1.631-1.712,3.04
		c0,1.551,0.826,2.477,1.731,3.182h-1.529v3.061h10.793v-3.061h-6.021c-1.449,0-2.194-0.705-2.194-1.852
		c0-1.148,0.745-1.792,2.194-1.792h6.021v-3.061h-6.021c-1.449,0-2.194-0.705-2.194-1.853c0-1.147,0.745-1.792,2.194-1.792H444.528z
		"/>
	<path fill-rule="evenodd" clip-rule="evenodd" fill="#1b2a1d" d="M25.106,70.732l15.179-38.846H28.917l-8.704,25.825l-8.633-25.825
		H0l15.178,38.846H25.106z M76.229,52.243V52.1c0-10.935-5.898-20.934-18.776-20.934c-11.222,0-19.063,9.064-19.063,20.071v0.144
		c0,11.798,8.561,19.926,20.143,19.926c6.977,0,12.157-2.733,15.754-7.194l-6.259-5.539c-3.021,2.806-5.684,3.957-9.353,3.957
		c-4.891,0-8.344-2.59-9.423-7.554h26.833C76.157,53.971,76.229,53.323,76.229,52.243 M65.583,48.143H49.109
		c0.863-4.964,3.813-8.201,8.344-8.201C62.058,39.942,64.935,43.251,65.583,48.143 M118.936,61.74V31.886h-10.935v5.035
		c-2.95-3.238-6.475-5.755-12.445-5.755c-8.849,0-17.121,6.474-17.121,17.984v0.144c0,11.438,8.129,17.985,17.121,17.985
		c5.826,0,9.352-2.374,12.59-6.259v1.87c0,6.907-3.525,10.503-11.007,10.503c-5.108,0-9.064-1.295-13.021-3.524l-3.74,8.2
		c4.892,2.59,10.79,4.028,17.048,4.028C111.742,82.098,118.936,76.271,118.936,61.74 M108.146,49.15v0.144
		c0,5.252-4.102,8.921-9.424,8.921c-5.324,0-9.353-3.597-9.353-8.921V49.15c0-5.251,4.028-8.92,9.353-8.92
		C104.044,40.23,108.146,43.899,108.146,49.15 M147.112,70.444h10.575V48.071c0-10.431-5.252-16.618-17.194-16.618
		c-6.546,0-10.718,1.224-14.963,3.094l2.734,8.345c3.524-1.295,6.474-2.087,10.646-2.087c5.467,0,8.273,2.519,8.273,7.05v0.647
		c-2.734-0.935-5.539-1.583-9.425-1.583c-9.136,0-15.539,3.885-15.539,12.301v0.145c0,7.625,5.972,11.797,13.237,11.797
		c5.323,0,8.992-1.941,11.654-4.891V70.444z M147.327,54.906v1.942c0,3.956-3.452,6.762-8.56,6.762
		c-3.525,0-5.972-1.726-5.972-4.676V58.79c0-3.453,2.877-5.323,7.555-5.323C143.01,53.467,145.457,54.042,147.327,54.906
		 M198.235,58.033V45.481c0-8.847-4.82-14.315-13.093-14.315c-5.539,0-8.776,2.95-11.294,6.186v-5.466h-10.935v38.558h10.935v-21.51
		c0-5.179,2.661-7.841,6.834-7.841s6.618,2.663,6.618,7.841v12.648L198.235,58.033z"/>
	<path fill-rule="evenodd" clip-rule="evenodd" fill="#F48020" d="M290.863,70.451h10.575V48.079
		c0-10.431-5.252-16.618-17.193-16.618c-6.546,0-10.719,1.223-14.963,3.094l2.733,8.344c3.525-1.294,6.475-2.085,10.647-2.085
		c5.467,0,8.272,2.517,8.272,7.049v0.648c-2.733-0.936-5.539-1.583-9.424-1.583c-9.137,0-15.538,3.885-15.538,12.301v0.144
		c0,7.626,5.971,11.798,13.235,11.798c5.324,0,8.993-1.942,11.654-4.891V70.451z M291.079,54.913v1.942
		c0,3.957-3.452,6.762-8.561,6.762c-3.525,0-5.971-1.726-5.971-4.675v-0.144c0-3.453,2.878-5.324,7.554-5.324
		C286.762,53.474,289.208,54.05,291.079,54.913 M327.958,68.869v-8.776c-1.582,0.863-3.382,1.367-5.395,1.367
		c-2.446,0-3.525-1.224-3.525-3.741V41.245h9.064v-9.352h-9.064v-9.856h-10.935v9.856H303.5v9.352h4.604v18.272
		c0,8.92,4.532,11.582,11.221,11.582C322.995,71.099,325.657,70.235,327.958,68.869 M373.879,70.451h10.934V45.49
		c0-8.849-4.82-14.316-13.093-14.316c-5.539,0-8.776,2.949-11.294,6.186v-5.467h-2.587l-8.347,15.874v22.685h10.934V48.943
		c0-5.18,2.662-7.842,6.834-7.842c4.173,0,6.619,2.662,6.619,7.842V70.451z M428.887,61.747V31.893h-10.936v5.036
		c-2.948-3.237-6.474-5.755-12.444-5.755c-8.849,0-17.121,6.474-17.121,17.984v0.144c0,11.439,8.129,17.984,17.121,17.984
		c5.827,0,9.352-2.375,12.589-6.258v1.87c0,6.906-3.524,10.502-11.006,10.502c-5.107,0-9.064-1.295-13.021-3.524l-3.74,8.201
		c4.892,2.59,10.789,4.028,17.049,4.028C421.693,82.105,428.887,76.278,428.887,61.747 M418.096,49.158v0.144
		c0,5.252-4.1,8.92-9.424,8.92c-5.323,0-9.352-3.596-9.352-8.92v-0.144c0-5.251,4.028-8.92,9.352-8.92
		C413.997,40.238,418.096,43.907,418.096,49.158"/>
	<path fill="#F48020" d="M263.211,50.733L237.97,61.295l-1.862-4.446l25.241-10.562l-2.541-6.07L233.57,50.778l-1.859-4.447
		l25.238-10.56l-2.371-5.666c0,0-25.589,10.707-25.767,10.784c-5.553,2.323-8.848,7.753-8.737,13.427L180.378,67.2
		c-4,1.992-5.824,6.762-4.073,10.944c1.748,4.178,6.425,6.228,10.651,4.778l37.153-18.952c3.964,4.067,10.148,5.534,15.705,3.208
		c0.18-0.072,25.767-10.78,25.767-10.78L263.211,50.733z"/>
	<path fill="#87C541" d="M345.731,17.765c-0.535-3.023-1.604-5.862-3.499-8.348C341.1,7.929,338.644,9.5,339.784,11
		c1.748,2.299,2.733,4.884,3.156,7.71c1.381-0.086,2.626,0.007,3.484,0.191c0.981,0.211,2.245,0.622,3.542,1.21
		c0.12-0.197,0.209-0.423,0.229-0.698c0.432-5.93,3.592-10.869,6.768-15.709c0.319-0.486,0.288-0.947,0.064-1.305l-0.015-0.023
		c-0.513-0.78-1.954-1.052-2.65,0.012c-1.554,2.365-3.024,4.719-4.223,7.174c0.717-2.548,1.635-5.044,2.714-7.443
		c0.767-1.708-1.83-3.037-2.604-1.314C347.844,6.166,346.181,11.898,345.731,17.765"/>
	<path fill="#F48020" d="M341.786,20.514c-1.94,0.163-4.129,0.721-5.733,1.887c-1.374,1.002-2.181,2.345-2.386,3.986l-0.048,1.77
		c2.665-1.504,5.516-2.463,8.834-2.06c1.87,0.223,1.326,3.086-0.531,2.866c-3.167-0.382-5.88,0.942-8.396,2.635l-0.109,3.989
		c2.294-1.097,4.743-1.717,7.526-1.385c1.871,0.228,1.328,3.09-0.53,2.866c-2.626-0.316-4.938,0.544-7.087,1.807l-0.117,4.255
		c1.918-0.731,3.963-1.095,6.223-0.822c1.872,0.228,1.33,3.09-0.529,2.865c-2.102-0.247-4.002,0.25-5.78,1.107l-0.539,19.78
		c-0.168,1.333,0.057,2.468,0.65,3.333c0.765,1.115,2.066,1.663,3.394,1.434c1.537-0.269,2.699-1.493,3.192-3.363l14.355-38.026
		c0.368-1.412,0.123-2.787-0.74-4.046c-1.272-1.856-3.601-3.127-5.587-3.899c-1.225-0.475-2.313-0.761-2.954-0.88
		C344.087,20.462,342.983,20.413,341.786,20.514"/>
</g>
<path fill="#1b2a1d" d="M118.839,96.753c1.504,0,2.732,0.98,3.672,2.939c0.175,0.619,0.263,1.103,0.263,1.445
	c0,1.442-1.121,2.604-3.359,3.492v0.041c0.605,1.003,1.379,1.505,2.32,1.505c1.312,0,2.706-1.048,4.182-3.135
	c0.914-1.021,1.611-1.534,2.087-1.534h0.085l0.088,0.096v0.442l-0.044,0.173c0.016,0.074,0.07,0.126,0.173,0.151
	c0.192,0,0.321-0.154,0.376-0.465h0.09v0.045c0,0.49-0.429,1.298-1.276,2.419c-0.151,0.262-0.255,0.546-0.314,0.855
	c-0.394,0.093-0.593,0.255-0.593,0.487c-0.814,1.331-2.01,2.271-3.589,2.817c-0.516,0.114-0.94,0.173-1.264,0.173h-0.443
	c-2.124,0-4.212-1.533-6.266-4.602l-0.214-3.5v-0.325c0-1.435,0.465-2.326,1.39-2.681C117.206,97.033,118.083,96.753,118.839,96.753
	 M117.511,100.998c0,0.858,0.24,1.464,0.724,1.814c0.323,0,0.829-0.255,1.512-0.768c0.118-0.357,0.173-0.646,0.173-0.863
	c0-0.87-0.387-1.475-1.165-1.814l-0.336-0.044c-0.446,0-0.671,0.141-0.671,0.421C117.588,100.035,117.511,100.451,117.511,100.998
	 M136.385,96.483c0.562,0,0.938,0.473,1.133,1.424c0,0.498,0.303,2.113,0.907,4.842c0.429,1.52,1.047,2.804,1.858,3.847
	c0.483,0.727,0.727,1.287,0.727,1.686v0.27c0,0.339-0.214,0.509-0.638,0.509c-0.413,0.266-0.693,0.398-0.844,0.398
	c-0.801-0.296-1.517-0.934-2.151-1.911c-0.324-0.619-0.91-1.977-1.759-4.063l-0.273-0.336c-1.043,1.608-1.95,2.854-2.721,3.739
	c-0.944,0.985-2.029,1.479-3.253,1.479c-1.165,0-1.925-0.604-2.279-1.814l-0.044-0.723c0-1.63,1.059-3.647,3.168-6.063
	c1.31-1.065,2.821-1.973,4.536-2.722c0.468-0.376,0.94-0.561,1.416-0.561H136.385z M130.171,105.427h0.045
	c0.689,0,1.391-0.604,2.095-1.814c1.306-1.604,1.954-2.858,1.954-3.758l-0.041-0.044h-0.099c-0.509,0.158-1.431,0.925-2.766,2.301
	c-0.819,1.044-1.232,2.136-1.232,3.274L130.171,105.427z M145.177,88.26c0.665,0,1.137,0.332,1.416,0.996
	c-0.573,3.551-0.861,6.35-0.861,8.404v1.858l0.593,0.045c1.28,0,2.696-0.2,4.245-0.598l0.733-0.041c0.664,0,0.996,0.317,0.996,0.952
	c0,0.939-0.634,1.501-1.902,1.674c-0.562,0.151-2.014,0.317-4.353,0.494c0,0.059-0.106,0.089-0.313,0.089l0.269,2.852
	c0,0.397-0.092,0.747-0.269,1.058c0.206,0.254,0.313,0.598,0.313,1.04v0.442c0,0.992-0.106,1.526-0.313,1.597l-1.137-0.085
	c-0.129,0-0.283,0.1-0.465,0.303c-0.777-0.34-1.165-1.593-1.165-3.762c0-1.958-0.106-2.936-0.313-2.936
	c-0.27-0.284-1.191-0.425-2.767-0.425c-0.708,0-1.209-0.376-1.504-1.132v-0.129c0.354-0.778,1.158-1.169,2.412-1.169
	c0.66,0.015,0.992,0.059,0.992,0.129c0.225,0,0.387-0.185,0.486-0.55l0.141-0.088h0.38l-0.055-0.583
	c0-2.504,0.257-5.742,0.776-9.714c0.385-0.479,0.874-0.723,1.479-0.723H145.177z M164.679,98.036c1.398,0,2.46,0.361,3.19,1.081
	c0.17,0.059,0.259,0.177,0.259,0.357c-0.266,0.181-0.413,0.306-0.442,0.38c0.181,3.802,0.269,6.638,0.269,8.512
	c0,3.617-0.302,5.904-0.907,6.863c-0.858,1.77-2.039,2.655-3.544,2.655c-1.412,0-2.652-0.568-3.718-1.708l-0.085-0.151v-0.181
	c0-0.428-0.379-1.103-1.135-2.031c-0.311-0.535-0.466-1.007-0.466-1.417c0-0.409,0.111-0.704,0.337-0.885h0.184
	c0.129,0,0.354,0.162,0.679,0.487c0.354,0,0.531,0.073,0.531,0.225c0.265,0.837,0.988,1.667,2.172,2.497
	c0.041,0,0.424,0.258,1.144,0.777c0.591-0.15,1.103-0.561,1.533-1.22c0.484-0.974,0.728-2.354,0.728-4.139l-0.133-5.307l0.045-0.863
	c-0.325,0.311-0.985,1.276-1.989,2.896c-0.815,0.974-1.615,1.46-2.407,1.46h-0.313c-0.505,0-1.08-0.332-1.73-0.995
	c-0.482-0.31-0.723-0.687-0.723-1.125c-0.181-0.476-0.27-1.036-0.27-1.686v-0.313c0-2.419,1.236-4.278,3.714-5.572
	c0.93-0.398,1.838-0.598,2.726-0.598H164.679z M160.609,104.692l0.085,0.908c0.785-0.425,1.467-1.177,2.043-2.258
	c0.62-1.103,1.176-2.025,1.674-2.766c-0.015-0.1-0.07-0.151-0.173-0.151c-0.661,0-1.464,0.384-2.409,1.154
	c-0.815,0.853-1.22,1.789-1.22,2.811V104.692z M177.776,96.797c0.899,0,1.35,0.203,1.35,0.616c0.099,0.432,0.255,0.752,0.465,0.959
	v0.088c-2.563,1.295-4.422,3.396-5.577,6.299c-0.545,1.55-0.817,2.807-0.817,3.77c-0.86,0.398-1.432,0.594-1.72,0.594
	c0-0.336-0.364-0.667-1.092-0.992c0-0.49-0.396-2.445-1.187-5.867c-0.182-0.704-0.273-1.431-0.273-2.173v-0.593
	c0.133-0.477,0.568-0.757,1.31-0.841h0.107c0.884,0,1.427,0.615,1.622,1.854l-0.056,0.716c0.672-0.579,1.623-1.576,2.863-2.995
	c1.031-0.959,1.993-1.435,2.894-1.435H177.776z M183.566,96.753c1.505,0,2.732,0.98,3.674,2.939
	c0.172,0.619,0.261,1.103,0.261,1.445c0,1.442-1.121,2.604-3.36,3.492v0.041c0.605,1.003,1.381,1.505,2.32,1.505
	c1.313,0,2.707-1.048,4.182-3.135c0.915-1.021,1.612-1.534,2.089-1.534h0.084l0.089,0.096v0.442l-0.044,0.173
	c0.014,0.074,0.068,0.126,0.173,0.151c0.191,0,0.321-0.154,0.376-0.465h0.089v0.045c0,0.49-0.428,1.298-1.277,2.419
	c-0.149,0.262-0.254,0.546-0.313,0.855c-0.396,0.093-0.594,0.255-0.594,0.487c-0.815,1.331-2.011,2.271-3.589,2.817
	c-0.516,0.114-0.94,0.173-1.265,0.173h-0.443c-2.124,0-4.211-1.533-6.265-4.602l-0.214-3.5v-0.325c0-1.435,0.465-2.326,1.39-2.681
	C181.931,97.033,182.809,96.753,183.566,96.753 M182.239,100.998c0,0.858,0.239,1.464,0.722,1.814c0.325,0,0.83-0.255,1.512-0.768
	c0.118-0.357,0.175-0.646,0.175-0.863c0-0.87-0.388-1.475-1.166-1.814l-0.336-0.044c-0.446,0-0.672,0.141-0.672,0.421
	C182.316,100.035,182.239,100.451,182.239,100.998 M196.4,96.753c1.505,0,2.732,0.98,3.673,2.939
	c0.173,0.619,0.262,1.103,0.262,1.445c0,1.442-1.121,2.604-3.36,3.492v0.041c0.605,1.003,1.381,1.505,2.32,1.505
	c1.313,0,2.707-1.048,4.182-3.135c0.915-1.021,1.612-1.534,2.088-1.534h0.085l0.089,0.096v0.442l-0.044,0.173
	c0.014,0.074,0.068,0.126,0.173,0.151c0.19,0,0.321-0.154,0.376-0.465h0.088v0.045c0,0.49-0.427,1.298-1.276,2.419
	c-0.15,0.262-0.254,0.546-0.313,0.855c-0.396,0.093-0.594,0.255-0.594,0.487c-0.815,1.331-2.011,2.271-3.589,2.817
	c-0.516,0.114-0.94,0.173-1.265,0.173h-0.443c-2.123,0-4.211-1.533-6.265-4.602l-0.215-3.5v-0.325c0-1.435,0.466-2.326,1.391-2.681
	C194.765,97.033,195.643,96.753,196.4,96.753 M195.072,100.998c0,0.858,0.24,1.464,0.723,1.814c0.324,0,0.83-0.255,1.512-0.768
	c0.118-0.357,0.175-0.646,0.175-0.863c0-0.87-0.388-1.475-1.166-1.814l-0.336-0.044c-0.446,0-0.672,0.141-0.672,0.421
	C195.15,100.035,195.072,100.451,195.072,100.998 M212.151,95.672c0.929,0.229,1.394,0.384,1.394,0.465
	c0.383,0.886,0.73,1.984,1.04,3.294c0.59,4.042,1.047,6.689,1.372,7.943c0.092,0,0.166,0.272,0.225,0.818v0.089
	c0,0.49-0.317,0.733-0.951,0.733h-0.085c-0.914,0-1.371-0.169-1.371-0.509c-0.433-0.885-0.782-1.973-1.049-3.26l-0.95-5.705h-0.045
	c-1.014,1.239-2.213,3.636-3.589,7.195c-0.567,1.157-0.885,1.752-0.947,1.77c0-0.092-0.147-0.154-0.446-0.181h-0.634
	c-0.271,0-0.402-0.136-0.402-0.401l-0.506-0.907c0.395-1.442,0.594-3.969,0.594-7.586c0.605-0.365,0.922-0.591,0.948-0.668
	c0-0.129,0.063-0.195,0.184-0.195c1.06,0.144,1.591,0.299,1.591,0.465l-0.13,0.398l0.04,0.044h0.046
	c0.574-0.546,1.102-1.258,1.577-2.128C210.82,96.229,211.515,95.672,212.151,95.672 M228.834,89.104
	c2.659,0,4.529,1.461,5.609,4.386c0.258,0.763,0.387,1.309,0.387,1.63c-0.202,0.608-0.7,0.911-1.501,0.911h-0.486l-0.421,0.04
	c-0.295-1.18-0.597-2.039-0.907-2.581c-0.763-1.302-1.472-1.955-2.12-1.955h-0.181c-0.822,0-1.309,0.76-1.461,2.279l-0.218,3.478
	c0.93,0.104,2.958,0.214,6.086,0.336c0.899,0.129,1.35,0.247,1.35,0.347c0,0.137,0.088,0.306,0.258,0.509v0.096
	c-0.199,0-0.332,0.162-0.398,0.487c-0.689,0.509-1.758,0.767-3.208,0.767h-2.626c-0.59,0-1.048,0.06-1.372,0.185
	c0.38,5.223,0.771,8.641,1.166,10.264l-0.13,0.085h-0.044c-0.085,0-0.232-0.063-0.442-0.192l-0.332,0.819h-0.218
	c-0.181,0-0.527-0.181-1.036-0.539c-0.347,0-0.521-0.214-0.521-0.638c-0.295-0.87-0.571-3.563-0.833-8.073
	c-0.106-0.937-0.188-1.401-0.246-1.401l-2.638-0.464c-0.351-0.159-0.557-0.292-0.616-0.392v-1.243c0-0.084,0.303-0.177,0.907-0.269
	c0.845-0.384,1.534-0.573,2.076-0.573h0.052v-0.043c0-3.898,0.664-6.571,1.992-8.028c0.53-0.151,1.105-0.226,1.727-0.226H228.834z
	 M238.7,96.753c1.505,0,2.732,0.98,3.673,2.939c0.173,0.619,0.262,1.103,0.262,1.445c0,1.442-1.121,2.604-3.359,3.492v0.041
	c0.604,1.003,1.38,1.505,2.319,1.505c1.313,0,2.707-1.048,4.183-3.135c0.914-1.021,1.611-1.534,2.087-1.534h0.085l0.089,0.096v0.442
	l-0.045,0.173c0.015,0.074,0.07,0.126,0.174,0.151c0.191,0,0.32-0.154,0.376-0.465h0.089v0.045c0,0.49-0.428,1.298-1.276,2.419
	c-0.151,0.262-0.255,0.546-0.313,0.855c-0.395,0.093-0.594,0.255-0.594,0.487c-0.815,1.331-2.01,2.271-3.588,2.817
	c-0.517,0.114-0.941,0.173-1.266,0.173h-0.442c-2.124,0-4.212-1.533-6.266-4.602l-0.214-3.5v-0.325c0-1.435,0.465-2.326,1.39-2.681
	C237.066,97.033,237.944,96.753,238.7,96.753 M237.372,100.998c0,0.858,0.24,1.464,0.723,1.814c0.325,0,0.83-0.255,1.513-0.768
	c0.117-0.357,0.173-0.646,0.173-0.863c0-0.87-0.387-1.475-1.165-1.814l-0.335-0.044c-0.447,0-0.672,0.141-0.672,0.421
	C237.449,100.035,237.372,100.451,237.372,100.998 M251.534,96.753c1.504,0,2.732,0.98,3.673,2.939
	c0.173,0.619,0.262,1.103,0.262,1.445c0,1.442-1.121,2.604-3.359,3.492v0.041c0.604,1.003,1.38,1.505,2.319,1.505
	c1.313,0,2.707-1.048,4.184-3.135c0.913-1.021,1.61-1.534,2.086-1.534h0.085l0.088,0.096v0.442l-0.044,0.173
	c0.015,0.074,0.07,0.126,0.174,0.151c0.191,0,0.32-0.154,0.376-0.465h0.089v0.045c0,0.49-0.428,1.298-1.276,2.419
	c-0.151,0.262-0.255,0.546-0.313,0.855c-0.395,0.093-0.594,0.255-0.594,0.487c-0.815,1.331-2.01,2.271-3.589,2.817
	c-0.516,0.114-0.94,0.173-1.265,0.173h-0.441c-2.125,0-4.213-1.533-6.267-4.602l-0.214-3.5v-0.325c0-1.435,0.465-2.326,1.39-2.681
	C249.9,97.033,250.778,96.753,251.534,96.753 M250.206,100.998c0,0.858,0.24,1.464,0.723,1.814c0.325,0,0.83-0.255,1.513-0.768
	c0.117-0.357,0.173-0.646,0.173-0.863c0-0.87-0.387-1.475-1.165-1.814l-0.335-0.044c-0.447,0-0.672,0.141-0.672,0.421
	C250.283,100.035,250.206,100.451,250.206,100.998 M262.121,88.131c0.547,0,0.823,0.195,0.823,0.582
	c0.206,0.93,0.313,1.896,0.313,2.896l-0.313,6.679v0.689c0,2.024,0.343,4.798,1.036,8.32v0.486c0,0.568-0.162,0.893-0.487,0.974
	c-0.202,0-0.627,0.085-1.275,0.258c-0.166-0.136-0.454-0.32-0.863-0.549c-0.785-4.193-1.177-7.586-1.177-10.179v-1.265
	c0-1.845,0.182-3.714,0.55-5.606c-0.085,0-0.166-0.316-0.236-0.951l-0.357-0.239c0.181,0,0.336-0.542,0.465-1.631
	c0.505-0.31,0.955-0.464,1.35-0.464H262.121z M278.456,98.036c1.397,0,2.459,0.361,3.189,1.081c0.17,0.059,0.26,0.177,0.26,0.357
	c-0.267,0.181-0.414,0.306-0.443,0.38c0.18,3.802,0.269,6.638,0.269,8.512c0,3.617-0.303,5.904-0.907,6.863
	c-0.859,1.77-2.039,2.655-3.543,2.655c-1.413,0-2.652-0.568-3.719-1.708l-0.085-0.151v-0.181c0-0.428-0.38-1.103-1.136-2.031
	c-0.311-0.535-0.465-1.007-0.465-1.417c0-0.409,0.111-0.704,0.336-0.885h0.185c0.129,0,0.354,0.162,0.679,0.487
	c0.354,0,0.531,0.073,0.531,0.225c0.266,0.837,0.988,1.667,2.172,2.497c0.041,0,0.424,0.258,1.144,0.777
	c0.59-0.15,1.103-0.561,1.534-1.22c0.482-0.974,0.727-2.354,0.727-4.139l-0.133-5.307l0.044-0.863
	c-0.324,0.311-0.984,1.276-1.988,2.896c-0.814,0.974-1.615,1.46-2.407,1.46h-0.314c-0.505,0-1.08-0.332-1.729-0.995
	c-0.483-0.31-0.724-0.687-0.724-1.125c-0.181-0.476-0.27-1.036-0.27-1.686v-0.313c0-2.419,1.236-4.278,3.714-5.572
	c0.93-0.398,1.837-0.598,2.726-0.598H278.456z M274.383,104.692l0.085,0.908c0.786-0.425,1.468-1.177,2.044-2.258
	c0.619-1.103,1.176-2.025,1.674-2.766c-0.015-0.1-0.07-0.151-0.174-0.151c-0.66,0-1.464,0.384-2.408,1.154
	c-0.814,0.853-1.221,1.789-1.221,2.811V104.692z M291.551,96.797c0.899,0,1.35,0.203,1.35,0.616c0.1,0.432,0.254,0.752,0.465,0.959
	v0.088c-2.563,1.295-4.422,3.396-5.576,6.299c-0.546,1.55-0.819,2.807-0.819,3.77c-0.858,0.398-1.431,0.594-1.718,0.594
	c0-0.336-0.365-0.667-1.092-0.992c0-0.49-0.398-2.445-1.188-5.867c-0.181-0.704-0.273-1.431-0.273-2.173v-0.593
	c0.133-0.477,0.568-0.757,1.31-0.841h0.107c0.885,0,1.427,0.615,1.622,1.854l-0.056,0.716c0.672-0.579,1.623-1.576,2.862-2.995
	c1.032-0.959,1.995-1.435,2.895-1.435H291.551z M297.341,96.753c1.504,0,2.732,0.98,3.673,2.939
	c0.173,0.619,0.262,1.103,0.262,1.445c0,1.442-1.121,2.604-3.359,3.492v0.041c0.604,1.003,1.379,1.505,2.32,1.505
	c1.312,0,2.706-1.048,4.182-3.135c0.914-1.021,1.611-1.534,2.087-1.534h0.085l0.088,0.096v0.442l-0.044,0.173
	c0.015,0.074,0.07,0.126,0.174,0.151c0.191,0,0.32-0.154,0.376-0.465h0.088v0.045c0,0.49-0.428,1.298-1.275,2.419
	c-0.151,0.262-0.255,0.546-0.313,0.855c-0.395,0.093-0.594,0.255-0.594,0.487c-0.815,1.331-2.01,2.271-3.589,2.817
	c-0.516,0.114-0.94,0.173-1.264,0.173h-0.443c-2.124,0-4.212-1.533-6.266-4.602l-0.214-3.5v-0.325c0-1.435,0.466-2.326,1.39-2.681
	C295.708,97.033,296.585,96.753,297.341,96.753 M296.013,100.998c0,0.858,0.24,1.464,0.724,1.814c0.324,0,0.829-0.255,1.512-0.768
	c0.117-0.357,0.173-0.646,0.173-0.863c0-0.87-0.387-1.475-1.165-1.814l-0.336-0.044c-0.446,0-0.671,0.141-0.671,0.421
	C296.09,100.035,296.013,100.451,296.013,100.998 M310.175,96.753c1.504,0,2.732,0.98,3.673,2.939
	c0.173,0.619,0.262,1.103,0.262,1.445c0,1.442-1.121,2.604-3.359,3.492v0.041c0.604,1.003,1.379,1.505,2.32,1.505
	c1.312,0,2.706-1.048,4.181-3.135c0.915-1.021,1.613-1.534,2.088-1.534h0.085l0.088,0.096v0.442l-0.044,0.173
	c0.015,0.074,0.07,0.126,0.174,0.151c0.191,0,0.32-0.154,0.376-0.465h0.088v0.045c0,0.49-0.428,1.298-1.275,2.419
	c-0.151,0.262-0.255,0.546-0.313,0.855c-0.395,0.093-0.594,0.255-0.594,0.487c-0.815,1.331-2.011,2.271-3.589,2.817
	c-0.516,0.114-0.94,0.173-1.264,0.173h-0.443c-2.124,0-4.212-1.533-6.266-4.602l-0.215-3.5v-0.325c0-1.435,0.465-2.326,1.391-2.681
	C308.541,97.033,309.418,96.753,310.175,96.753 M308.847,100.998c0,0.858,0.239,1.464,0.724,1.814c0.323,0,0.829-0.255,1.511-0.768
	c0.118-0.357,0.174-0.646,0.174-0.863c0-0.87-0.387-1.475-1.166-1.814l-0.335-0.044c-0.446,0-0.671,0.141-0.671,0.421
	C308.924,100.035,308.847,100.451,308.847,100.998 M325.926,95.672c0.929,0.229,1.395,0.384,1.395,0.465
	c0.383,0.886,0.729,1.984,1.039,3.294c0.59,4.042,1.047,6.689,1.372,7.943c0.092,0,0.166,0.272,0.225,0.818v0.089
	c0,0.49-0.317,0.733-0.951,0.733h-0.085c-0.915,0-1.372-0.169-1.372-0.509c-0.432-0.885-0.782-1.973-1.048-3.26l-0.951-5.705h-0.044
	c-1.015,1.239-2.213,3.636-3.588,7.195c-0.568,1.157-0.886,1.752-0.948,1.77c0-0.092-0.146-0.154-0.446-0.181h-0.635
	c-0.269,0-0.401-0.136-0.401-0.401l-0.506-0.907c0.396-1.442,0.594-3.969,0.594-7.586c0.605-0.365,0.923-0.591,0.948-0.668
	c0-0.129,0.063-0.195,0.185-0.195c1.059,0.144,1.59,0.299,1.59,0.465l-0.13,0.398l0.041,0.044h0.044
	c0.575-0.546,1.103-1.258,1.578-2.128C324.594,96.229,325.292,95.672,325.926,95.672"/>
<path fill="#1b2a1d" d="M95.817,101.952c-0.02,0.545-0.225,0.814-0.612,0.801c-0.936,0.174-1.905,0.246-2.904,0.211l-6.664-0.55
	l-0.689-0.024c-2.023-0.072-4.807,0.172-8.351,0.74l-0.487-0.018c-0.567-0.02-0.886-0.194-0.955-0.521
	c0.007-0.201-0.063-0.629-0.213-1.284c0.142-0.161,0.337-0.441,0.58-0.843c4.218-0.636,7.623-0.906,10.213-0.814L87,99.694
	c1.843,0.065,3.705,0.313,5.583,0.748c0.003-0.085,0.322-0.154,0.959-0.202l0.252-0.349c-0.006,0.18,0.53,0.354,1.613,0.521
	c0.291,0.518,0.43,0.972,0.416,1.365L95.817,101.952z"/>
<path fill="#1b2a1d" d="M343.427,101.125c-0.021,0.545-0.225,0.814-0.611,0.801c-0.937,0.174-1.905,0.246-2.904,0.211l-6.664-0.55
	l-0.688-0.024c-2.023-0.072-4.808,0.172-8.352,0.74l-0.486-0.018c-0.568-0.02-0.887-0.194-0.956-0.521
	c0.007-0.201-0.063-0.629-0.213-1.285c0.143-0.16,0.337-0.44,0.58-0.842c4.218-0.637,7.623-0.906,10.214-0.814l1.264,0.045
	c1.844,0.065,3.705,0.313,5.583,0.748c0.003-0.085,0.323-0.154,0.959-0.202l0.253-0.349c-0.007,0.18,0.529,0.354,1.612,0.521
	c0.292,0.518,0.431,0.972,0.416,1.365L343.427,101.125z"/>
</svg>
